<svg width="66" height="64" viewBox="0 0 66 64" fill="none" xmlns="http://www.w3.org/2000/svg">
<path d="M14.3265 14.0747L26 6.37344C26 6.37344 25.2041 0.796681 19.102 0H14.3265V14.0747Z" fill="white"/>
<path d="M11.6735 14.0747L0 6.37344C0 6.37344 0.795918 0.796681 6.89796 0H11.6735V14.0747Z" fill="white"/>
<path d="M14.3265 27.3527L26 19.3859V10.0913L14.3265 17.7925V27.3527Z" fill="white"/>
<path d="M14.3265 40.6307L26 32.6639V23.3693L14.3265 31.0705V40.6307Z" fill="white"/>
<path d="M14.3265 53.9087L26 45.9419V36.6473L14.3265 44.3486V53.9087Z" fill="white"/>
<path d="M11.6735 27.3527L0 19.3859V10.0913L11.6735 17.7925V27.3527Z" fill="white"/>
<path d="M11.6735 40.6307L0 32.6639V23.3693L11.6735 31.0705V40.6307Z" fill="white"/>
<path d="M11.6735 53.9087L0 45.9419V36.6473L11.6735 44.3486V53.9087Z" fill="white"/>
<path d="M14.353 57.8921V63.7345H20.0412C20.0412 63.7345 25.7347 62.1411 26 57.361V49.9253L14.353 57.8921Z" fill="white"/>
<path d="M11.6469 57.8921V63.7345H5.95877C5.95877 63.7345 0.265306 62.1411 0 57.361V49.9253L11.6469 57.8921Z" fill="white"/>
<mask id="mask0_729_200" style="mask-type:alpha" maskUnits="userSpaceOnUse" x="28" y="17" width="38" height="46">
<rect x="28.6531" y="17.7925" width="36.8776" height="44.8797" fill="#C4C4C4"/>
</mask>
<g mask="url(#mask0_729_200)">
<path d="M45.102 41.2283V39.2764H57.0673C56.8578 36.0974 55.6074 33.0761 53.5096 30.6802L44.9296 39.2684L43.55 37.8875L52.13 29.2993C49.7363 27.1994 46.718 25.9478 43.542 25.7381V37.7096H41.592V25.7328C38.4127 25.9427 35.3914 27.1962 32.9961 29.2993L41.4859 37.7972L40.1143 39.1728L31.6245 30.6749C29.5266 33.0708 28.2762 36.0921 28.0667 39.2711H40.0294V41.2229H28.0614C28.2705 44.402 29.521 47.4234 31.6192 49.8191L40.0028 41.4274L41.3824 42.8083L32.9987 51.2C35.4081 53.3181 38.4524 54.5745 41.653 54.7718V42.7924H43.5367V54.7665C46.7126 54.5568 49.731 53.3052 52.1247 51.2054L43.741 42.8137L45.1206 41.4327L53.5043 49.8244C55.6024 47.4287 56.8529 44.4073 57.062 41.2283H45.102Z" fill="white"/>
<path d="M42.5604 17.8908C38.1417 17.8908 33.8222 19.2024 30.1482 21.6596C26.4742 24.1169 23.6106 27.6095 21.9196 31.6957C20.2287 35.782 19.7862 40.2784 20.6483 44.6164C21.5103 48.9544 23.6381 52.939 26.7627 56.0665C29.8872 59.194 33.868 61.3239 38.2018 62.1868C42.5357 63.0496 47.0278 62.6068 51.1101 60.9142C55.1925 59.2216 58.6817 56.3553 61.1367 52.6777C63.5916 49.0002 64.9019 44.6766 64.9019 40.2536C64.9019 34.3226 62.548 28.6346 58.3582 24.4407C54.1684 20.2469 48.4857 17.8908 42.5604 17.8908ZM42.5604 57.8311C39.0873 57.8311 35.6921 56.8002 32.8043 54.8687C29.9164 52.9373 27.6657 50.1921 26.3365 46.9802C25.0074 43.7684 24.6597 40.2341 25.3372 36.8244C26.0148 33.4148 27.6873 30.2828 30.1432 27.8245C32.5991 25.3663 35.7281 23.6922 39.1345 23.014C42.5409 22.3357 46.0718 22.6838 49.2806 24.0142C52.4894 25.3446 55.232 27.5975 57.1615 30.4881C59.0911 33.3787 60.121 36.7771 60.121 40.2536C60.1203 44.9152 58.27 49.3857 54.9769 52.682C51.6838 55.9782 47.2176 57.8303 42.5604 57.8311Z" fill="white"/>
<path d="M42.449 44.8797C44.94 44.8797 46.9593 42.8584 46.9593 40.3651C46.9593 37.8718 44.94 35.8506 42.449 35.8506C39.9581 35.8506 37.9388 37.8718 37.9388 40.3651C37.9388 42.8584 39.9581 44.8797 42.449 44.8797Z" fill="black"/>
<path d="M42.449 43.2863C44.0608 43.2863 45.3674 41.9785 45.3674 40.3652C45.3674 38.7518 44.0608 37.444 42.449 37.444C40.8372 37.444 39.5306 38.7518 39.5306 40.3652C39.5306 41.9785 40.8372 43.2863 42.449 43.2863Z" fill="white"/>
</g>
</svg>
